# xmcd CD database file
#
# Track frame offsets:
#	150
#	24412
#	47137
#	65979
#	91067
#	106872
#	122627
#	142889
#	161284
#	174774
#	190024
#	200137
#	218073
#	238144
#	253079
#	264326
#	281061
#	302667
#	315195
#	327958
#
# Disc length: 4615 seconds
#
# Revision: 0
# Processed by: cddbd v1.5.2PL0 Copyright (c) Steve Scherf et al.
# Submitted via: CDex 1.70beta2
#
DISCID=13120514
DTITLE=Pat Moran - Complete Trio Sessions
DYEAR=1900
DGENRE=Jazz
TTITLE0=Making Whoopee
TTITLE1=In Your Own Swet Way
TTITLE2=Onilosor
TTITLE3=Come Rain or Come Shine
TTITLE4=Collard Greens and Black-Eyed Peas
TTITLE5=I Could Have Danced All Night
TTITLE6=Yesterdays
TTITLE7=Blues
TTITLE8=The Man I Love
TTITLE9=I Get A Kick Out of You
TTITLE10=I Wish I Knew
TTITLE11=You Don't Know What Love Is
TTITLE12=I'm Glad There Is You
TTITLE13=Sometimes I'm Happy
TTITLE14=You And The Night And The Music
TTITLE15=But Not For Me
TTITLE16=Embraceable You
TTITLE17=Lover Come Back To Me
TTITLE18=Someone To Watch Over Me
TTITLE19=Goodbye
EXTD=
EXTT0=
EXTT1=
EXTT2=
EXTT3=
EXTT4=
EXTT5=
EXTT6=
EXTT7=
EXTT8=
EXTT9=
EXTT10=
EXTT11=
EXTT12=
EXTT13=
EXTT14=
EXTT15=
EXTT16=
EXTT17=
EXTT18=
EXTT19=
PLAYORDER=
